# Blender v2.83.0 OBJ File: 'zombie1.blend'
# www.blender.org
mtllib leftleg.mtl
o LegL_Body.002
v -0.030890 -0.146065 -0.294382
v 0.073907 -0.761493 -0.331072
v 0.017110 -0.742440 -0.277766
v 0.172548 -0.711303 -0.295575
v 0.200261 -0.518708 -0.217365
v 0.127151 -0.581298 -0.155429
v 0.174375 -0.751293 -0.182223
v 0.110598 -0.758292 -0.178369
v 0.035766 -0.616206 -0.319500
v 0.036499 -0.542077 -0.193098
v 0.129467 -0.491918 -0.128414
v 0.193010 -0.496927 -0.291064
v 0.087595 -0.431826 -0.325334
v 0.018484 -0.259899 -0.132184
v 0.085917 -0.137004 -0.047666
v 0.235644 -0.265722 -0.084351
v 0.111787 -0.311038 -0.068629
v 0.253005 -0.067460 -0.111099
v 0.286402 -0.149730 -0.228756
v 0.041836 -0.463437 -0.289384
v 0.263981 -0.298266 -0.306166
v 0.197203 -0.292681 -0.358833
v 0.285491 -0.289129 -0.221201
v 0.009957 -0.174095 -0.284566
v 0.194303 -0.726222 -0.210000
v 0.107782 -0.139898 -0.339160
v 0.020149 -0.450636 -0.148676
v 0.000426 -0.123871 -0.124284
v 0.214726 -0.059894 -0.295982
v 0.088438 0.042149 -0.019880
v 0.083468 -0.586744 -0.345623
v 0.172842 -0.600886 -0.334033
v 0.197783 -0.708375 -0.257955
v 0.051307 -0.731589 -0.204836
v 0.204490 0.119599 -0.296522
v 0.230477 0.093558 -0.221894
v 0.024844 0.049693 -0.009005
v 0.234373 0.083524 -0.179701
v 0.163256 0.057247 -0.072226
v 0.165911 0.137798 -0.322401
v 0.032044 0.159605 -0.341774
v 0.111971 0.142204 -0.344299
v 0.042561 -0.094396 -0.038614
v -0.075240 -0.076432 -0.026763
v -0.021930 -0.110550 -0.069001
v -0.009427 -0.128278 -0.318507
v 0.099793 0.019253 -0.387328
v -0.005003 -0.027323 0.005286
v -0.047755 0.160565 -0.349324
v 0.012911 -0.015218 -0.365087
v 0.079907 -0.456323 -0.290478
v 0.131651 -0.574940 -0.327317
v 0.051070 -0.756099 -0.296276
v 0.180662 -0.697644 -0.220552
v 0.175083 -0.463893 -0.208903
v 0.151949 -0.473426 -0.171603
v 0.090547 -0.466994 -0.140282
v 0.042381 -0.497563 -0.238282
v 0.020293 -0.411458 -0.185918
v 0.172505 -0.463207 -0.246869
v 0.143810 -0.449554 -0.283693
v 0.139900 -0.093481 -0.300074
v 0.105754 -0.335151 -0.316101
v 0.003281 -0.120105 -0.113134
v 0.099487 -0.225680 -0.067530
v 0.041247 -0.111226 -0.077004
v 0.199382 -0.200352 -0.314353
v 0.220379 -0.069403 -0.261860
v 0.061940 -0.863040 -0.269868
v 0.054074 -0.803455 -0.233074
v 0.086293 -0.990108 -0.304220
v 0.066055 -1.002596 -0.276059
v 0.124493 -1.005337 -0.165131
v 0.053105 -0.955495 -0.122782
v 0.052501 -0.945512 -0.192555
v 0.080228 -0.852946 -0.190138
v 0.154745 -0.873952 -0.220126
v 0.122300 -0.778313 -0.190566
v 0.118990 -0.893361 -0.165616
v 0.107285 -0.949687 -0.049597
v 0.177863 -0.977837 -0.084458
v 0.160615 -0.953948 -0.192977
v 0.116340 -0.964201 -0.307946
v 0.133105 -1.003916 -0.286359
v 0.153805 -0.960468 -0.254159
v 0.144367 -0.833520 -0.276200
v 0.104793 -0.860475 -0.284372
v 0.069637 -0.908100 -0.154388
v 0.129005 -0.086972 -0.064373
v 0.261374 -0.217653 -0.227878
v 0.221655 -0.076260 -0.104774
v 0.239383 -0.271092 -0.280290
v 0.156723 -1.003029 -0.031331
v 0.046824 -0.991690 -0.073723
v 0.164979 -0.276688 -0.334837
v 0.227001 -0.307470 -0.143526
v 0.184255 -0.263896 -0.079636
v 0.033003 -0.117130 -0.265462
v 0.239738 -0.065326 -0.184386
v 0.000497 -0.125120 -0.200362
v 0.052506 -0.363424 -0.275383
v 0.019511 -0.302828 -0.174453
v 0.054925 -0.991854 0.013843
v 0.054958 -0.972551 -0.041050
v 0.051852 -1.002265 -0.028857
v 0.112025 -0.975707 -0.024271
v 0.085907 -1.000919 0.010254
v 0.103376 -1.010871 0.005737
v 0.130233 -0.973877 -0.027952
v 0.148994 -1.006564 -0.009413
v 0.157187 -0.991033 -0.044539
v 0.112129 -0.477254 -0.137892
v 0.137879 -0.999917 -0.041053
v 0.084147 -0.986461 -0.029162
v 0.173999 -0.995051 -0.035320
v 0.078824 -1.007542 0.004502
v 0.149357 -0.970738 -0.044940
v 0.136345 -1.004399 -0.003748
v 0.110760 -0.999857 -0.033676
v 0.176089 -1.004303 -0.073909
v 0.073185 -0.106216 -0.291632
v 0.121911 -1.009249 0.006410
v 0.048113 -0.413461 -0.137772
v 0.060185 -0.565737 -0.316982
v 0.178485 -0.550492 -0.291239
v 0.139868 -0.549004 -0.167865
v 0.074251 -0.521256 -0.182232
v 0.031665 -0.620545 -0.262496
v 0.102914 -0.097429 -0.186423
v 0.112918 -0.095243 -0.198319
v 0.114178 -0.094970 -0.188698
v 0.102995 -0.097643 -0.198583
vt 0.547967 0.782661
vt 0.545630 0.787089
vt 0.543509 0.786083
vt 0.549884 0.783192
vt 0.552221 0.779500
vt 0.547074 0.789760
vt 0.549402 0.787196
vt 0.570067 0.804595
vt 0.575616 0.804104
vt 0.575400 0.808404
vt 0.546824 0.780482
vt 0.542908 0.781794
vt 0.566926 0.807246
vt 0.564942 0.801085
vt 0.557512 0.799332
vt 0.536470 0.784893
vt 0.530089 0.790488
vt 0.530706 0.785241
vt 0.566782 0.811887
vt 0.560500 0.806307
vt 0.561772 0.810483
vt 0.575292 0.812522
vt 0.538072 0.787155
vt 0.571062 0.799730
vt 0.534549 0.792754
vt 0.538664 0.796239
vt 0.535925 0.799713
vt 0.523867 0.789081
vt 0.579628 0.806171
vt 0.578568 0.810033
vt 0.574077 0.799894
vt 0.547855 0.776832
vt 0.542155 0.779486
vt 0.547584 0.775354
vt 0.586488 0.808901
vt 0.585278 0.810189
vt 0.583585 0.813670
vt 0.560144 0.795751
vt 0.557476 0.797177
vt 0.557923 0.808438
vt 0.554726 0.806494
vt 0.523341 0.793288
vt 0.523835 0.791284
vt 0.528031 0.795322
vt 0.556793 0.802500
vt 0.530175 0.798745
vt 0.542903 0.800837
vt 0.537701 0.802006
vt 0.548755 0.777728
vt 0.543264 0.795655
vt 0.563333 0.797927
vt 0.567167 0.796139
vt 0.535404 0.783280
vt 0.553693 0.781917
vt 0.582359 0.814956
vt 0.584750 0.812550
vt 0.523012 0.798147
vt 0.523147 0.801108
vt 0.523435 0.795305
vt 0.564806 0.794734
vt 0.562074 0.792940
vt 0.788937 0.336764
vt 0.837956 0.317704
vt 0.834533 0.342429
vt 0.827740 0.297212
vt 0.782091 0.308282
vt 0.959202 0.322703
vt 0.851817 0.370567
vt 0.805447 0.388039
vt 0.799297 0.369380
vt 0.807964 0.215709
vt 0.774920 0.226262
vt 0.772400 0.203750
vt 0.818980 0.245465
vt 0.779059 0.234399
vt 0.634493 0.185647
vt 0.670556 0.222603
vt 0.628644 0.198881
vt 0.482660 0.521030
vt 0.477261 0.546551
vt 0.461663 0.520100
vt 0.332970 0.458739
vt 0.377946 0.446795
vt 0.390103 0.484268
vt 0.389212 0.571366
vt 0.387916 0.587670
vt 0.373610 0.587800
vt 0.419421 0.430373
vt 0.330128 0.436236
vt 0.316060 0.451276
vt 0.364920 0.415444
vt 0.416437 0.522035
vt 0.426940 0.512190
vt 0.438301 0.521100
vt 0.424930 0.548850
vt 0.970078 0.341073
vt 0.624029 0.228357
vt 0.685569 0.241844
vt 0.624657 0.272931
vt 0.625500 0.249497
vt 0.670982 0.274745
vt 0.625873 0.287878
vt 0.690990 0.287891
vt 0.666627 0.299194
vt 0.698607 0.312349
vt 0.702943 0.260366
vt 0.726883 0.330320
vt 0.625750 0.350780
vt 0.780078 0.256608
vt 0.781506 0.273484
vt 0.784975 0.287376
vt 0.882840 0.284424
vt 0.930448 0.266044
vt 0.701195 0.379839
vt 0.624273 0.370868
vt 0.728114 0.348181
vt 0.760852 0.378206
vt 0.621212 0.389491
vt 0.342908 0.579153
vt 0.335907 0.591695
vt 0.320928 0.585369
vt 0.355348 0.551534
vt 0.334410 0.568935
vt 0.313671 0.565947
vt 0.435809 0.467095
vt 0.447419 0.468114
vt 0.460763 0.479191
vt 0.438823 0.481757
vt 0.459804 0.460484
vt 0.443759 0.451730
vt 0.434592 0.449382
vt 0.318318 0.518747
vt 0.321224 0.511061
vt 0.348255 0.520848
vt 0.432080 0.437862
vt 0.444039 0.430896
vt 0.335811 0.527708
vt 0.337275 0.533586
vt 0.362540 0.515488
vt 0.379139 0.501500
vt 0.455531 0.440238
vt 0.457582 0.445653
vt 0.442732 0.424928
vt 0.338067 0.495516
vt 0.347060 0.510717
vt 0.396412 0.550685
vt 0.433845 0.497830
vt 0.408168 0.486206
vt 0.402790 0.567910
vt 0.411690 0.544523
vt 0.401288 0.524613
vt 0.460874 0.548500
vt 0.448646 0.516512
vt 0.752081 0.214221
vt 0.701685 0.191063
vt 0.754088 0.199655
vt 0.871886 0.711380
vt 0.726047 0.681119
vt 0.728614 0.669073
vt 0.647834 0.569582
vt 0.716360 0.669514
vt 0.598048 0.629049
vt 0.592147 0.716781
vt 0.715554 0.680029
vt 0.641758 0.810814
vt 0.869582 0.593831
vt 0.721676 0.838513
vt 0.829439 0.805497
vt 0.907228 0.357812
vt 0.939032 0.238513
vt 0.933770 0.381991
vt 0.973044 0.356622
vt 0.629979 0.310628
vt 0.361253 0.482175
vt 0.409310 0.582360
vt 0.979630 0.271070
vt 0.974812 0.296946
vt 0.972832 0.257010
vt 0.310620 0.437730
vt 0.982490 0.330720
vt 0.334157 0.547542
vt 0.311626 0.539154
vt 0.313331 0.583436
vt 0.458234 0.486033
vt 0.357625 0.589750
vt 0.626518 0.330687
vt 0.451985 0.496697
vt 0.330986 0.500158
vt 0.718892 0.540026
vt 0.824148 0.553503
vt 0.307204 0.560183
vt 0.446898 0.548216
vn -0.1823 0.0284 -0.9828
vn -0.8877 0.0017 -0.4604
vn -0.2786 -0.0377 -0.9597
vn -0.8249 0.0558 -0.5625
vn -0.2347 -0.1171 -0.9650
vn -0.8472 -0.2097 0.4882
vn -0.8894 -0.1845 0.4183
vn -0.1227 -0.2171 0.9684
vn 0.2101 -0.3615 0.9084
vn 0.5608 -0.0824 -0.8238
vn 0.7931 -0.1023 -0.6004
vn 0.6411 -0.1848 0.7449
vn -0.0778 -0.2541 0.9640
vn 0.3620 -0.0240 0.9319
vn 0.8285 -0.1176 -0.5475
vn 0.6510 0.1207 -0.7494
vn 0.9725 0.1485 -0.1793
vn 0.9801 -0.1867 0.0676
vn 0.8254 0.1671 0.5392
vn 0.9312 -0.2117 0.2967
vn 0.2522 -0.0471 -0.9665
vn -0.9290 -0.0930 0.3582
vn 0.0107 -0.0368 -0.9993
vn -0.8210 -0.3095 -0.4797
vn -0.1955 -0.7118 -0.6746
vn 0.9681 0.1096 -0.2253
vn 0.1400 -0.1605 0.9771
vn 0.9796 -0.0689 -0.1886
vn 0.9050 -0.0165 0.4250
vn -0.9708 -0.0675 -0.2300
vn -0.6811 -0.0920 0.7264
vn 0.4110 -0.0637 0.9094
vn 0.2595 -0.4019 0.8781
vn 0.2301 0.0586 0.9714
vn 0.9717 0.1693 0.1649
vn 0.5190 0.1675 -0.8382
vn 0.7569 0.0460 -0.6519
vn 0.1895 -0.0435 -0.9809
vn 0.6325 0.2216 0.7422
vn -0.1450 -0.2037 -0.9682
vn -0.8022 -0.4956 0.3330
vn 0.7525 -0.6564 0.0534
vn 0.5806 -0.1885 -0.7921
vn -0.4123 -0.6524 0.6360
vn -0.1828 -0.1060 0.9774
vn 0.0777 0.3393 -0.9375
vn -0.0342 0.2209 -0.9747
vn 0.2160 0.3025 -0.9283
vn 0.1467 -0.9504 0.2741
vn 0.0290 -0.5373 0.8429
vn -0.4421 0.0584 -0.8951
vn 0.2582 0.0407 -0.9652
vn -0.5876 0.1181 -0.8004
vn 0.8674 0.0822 -0.4907
vn 0.4572 -0.0284 -0.8889
vn 0.7271 -0.0874 -0.6809
vn -1.0000 0.0026 0.0052
vn -0.6934 -0.1850 0.6964
vn -0.9992 -0.0349 -0.0170
vn -0.2942 -0.3643 0.8836
vn 0.3602 -0.1483 0.9210
vn 0.2070 0.1762 0.9624
vn -0.8210 0.4912 0.2909
vn -0.2129 -0.1508 0.9654
vn -0.4611 0.5454 0.7000
vn -0.9995 0.0136 0.0280
vn -0.9223 0.0136 0.3863
vn -0.6746 -0.6731 -0.3031
vn -0.1800 -0.9835 0.0178
vn -0.9990 -0.0440 0.0119
vn -0.6696 0.6358 0.3840
vn 0.6740 -0.7356 0.0679
vn 0.5066 -0.6899 -0.5172
vn -0.3706 -0.3754 -0.8496
vn 0.9431 -0.0977 -0.3178
vn 0.3032 -0.0119 -0.9529
vn -0.0876 0.0305 -0.9957
vn -0.0371 0.6942 0.7189
vn 0.4473 -0.2002 0.8717
vn 0.5783 0.8158 -0.0035
vn 0.5382 0.6308 0.5590
vn 0.9961 -0.0282 -0.0838
vn 0.3860 0.7902 -0.4761
vn 0.8482 -0.1883 -0.4951
vn 0.4666 0.1358 -0.8740
vn 0.1504 -0.0764 -0.9857
vn 0.8614 -0.2902 0.4169
vn -0.3197 -0.1122 -0.9408
vn -0.7291 0.5397 -0.4208
vn 0.7175 -0.2273 0.6584
vn 0.9515 -0.2184 0.2167
vn 0.9481 -0.0621 -0.3117
vn 0.9443 -0.1228 0.3054
vn 0.0707 -0.0052 0.9975
vn -0.9925 -0.1220 0.0114
vn -0.9030 0.4091 -0.1310
vn -0.8006 -0.0374 -0.5980
vn -0.9683 -0.2060 0.1413
vn -0.6661 0.6316 0.3968
vn -0.6880 -0.7249 -0.0344
vn -0.3769 0.1212 0.9183
vn 0.0560 0.8456 0.5309
vn -0.2623 0.3250 0.9086
vn -0.5525 -0.1929 0.8109
vn -0.1142 -0.9929 0.0323
vn 0.1767 0.6337 0.7531
vn 0.3347 -0.7004 0.6304
vn -0.0057 -0.5225 0.8526
vn 0.2701 0.6695 0.6920
vn 0.1449 -0.9875 0.0617
vn -0.3998 -0.3197 0.8591
vn 0.5878 -0.5289 0.6121
vn 0.6085 0.6845 0.4014
vn 0.5859 0.0938 0.8050
vn -0.5175 -0.4090 0.7517
vn 0.9179 0.3742 0.1320
vn 0.6727 0.1038 0.7326
vn 0.4570 0.5893 0.6663
vn -0.8586 -0.5025 -0.1018
vn -0.5576 0.3018 0.7733
vn 0.9757 0.0561 0.2116
vn 0.9649 0.2622 -0.0126
vn -0.7980 -0.0474 -0.6008
vn -0.6469 -0.3418 0.6817
vn -0.1743 0.9845 -0.0203
vn -0.2859 0.9581 0.0193
vn -0.3543 0.9127 -0.2036
vn -0.1064 -0.3701 -0.9229
vn 0.1712 0.5864 -0.7917
vn -0.1697 0.9806 -0.0984
vn -0.6995 -0.1722 -0.6936
vn 0.6082 -0.5886 0.5325
usemtl M
s 1
f 31/1/1 20/2/2 13/3/3
f 9/4/4 31/1/1 2/5/5
f 27/6/6 20/2/2 10/7/7
f 17/8/8 27/9/6 11/10/9
f 13/3/3 32/11/10 31/1/1
f 12/12/11 32/11/10 13/3/3
f 17/8/8 16/13/12 15/14/13
f 30/15/14 15/14/13 16/13/12
f 21/16/15 29/17/16 19/18/17
f 16/13/12 23/19/18 18/20/19
f 23/19/18 19/21/17 18/20/19
f 16/13/12 5/22/20 23/19/18
f 29/17/16 21/16/15 22/23/21
f 18/20/19 30/15/14 16/13/12
f 17/8/8 15/14/13 27/9/6
f 15/14/13 14/24/22 27/9/6
f 26/25/23 24/26/24 46/27/25
f 19/18/17 29/17/16 36/28/26
f 27/9/6 10/29/7 6/30/27
f 11/10/9 6/30/27 5/22/20
f 22/23/21 21/16/15 12/12/11
f 27/9/6 14/24/22 20/31/2
f 13/3/3 20/2/2 24/26/24
f 33/32/28 5/33/20 25/34/29
f 3/35/30 34/36/31 10/29/7
f 5/22/20 6/30/27 7/37/32
f 30/15/14 48/38/33 15/14/13
f 30/15/14 37/39/34 48/38/33
f 18/20/19 36/40/26 38/41/35
f 40/42/36 35/43/37 47/44/38
f 26/25/23 46/27/25 47/44/38
f 39/45/39 30/15/14 18/20/19
f 47/44/38 46/27/25 50/46/40
f 46/27/25 28/47/41 1/48/42
f 4/49/43 31/1/1 32/11/10
f 31/1/1 9/4/4 20/2/2
f 24/26/24 14/50/22 28/47/41
f 4/49/43 32/11/10 33/32/28
f 12/12/11 33/32/28 32/11/10
f 5/33/20 33/32/28 12/12/11
f 10/7/7 20/2/2 9/4/4
f 22/23/21 12/12/11 13/3/3
f 14/24/22 43/51/44 28/52/41
f 43/51/44 14/24/22 15/14/13
f 29/17/16 22/23/21 26/25/23
f 24/26/24 26/25/23 13/3/3
f 26/25/23 22/23/21 13/3/3
f 5/22/20 16/13/12 11/10/9
f 23/53/18 5/33/20 12/12/11
f 21/16/15 19/18/17 23/53/18
f 9/4/4 2/5/5 3/54/30
f 18/20/19 19/21/17 36/40/26
f 11/10/9 27/9/6 6/30/27
f 12/12/11 21/16/15 23/53/18
f 16/13/12 17/8/8 11/10/9
f 25/55/29 5/22/20 7/37/32
f 6/30/27 8/56/45 7/37/32
f 6/30/27 34/36/31 8/56/45
f 9/4/4 3/54/30 10/7/7
f 10/29/7 34/36/31 6/30/27
f 47/44/38 29/17/16 26/25/23
f 47/44/38 35/43/37 29/17/16
f 36/28/26 29/17/16 35/43/37
f 41/57/46 47/44/38 49/58/47
f 47/44/38 41/57/46 42/59/48
f 15/14/13 48/38/33 43/51/44
f 28/52/41 43/51/44 45/60/49
f 48/38/33 44/61/50 43/51/44
f 46/27/25 24/26/24 28/47/41
f 49/58/47 47/44/38 50/46/40
f 38/41/35 39/45/39 18/20/19
f 42/59/48 40/42/36 47/44/38
f 51/62/51 52/63/52 124/64/53
f 125/65/54 52/63/52 61/66/55
f 125/65/54 86/67/56 52/63/52
f 128/68/57 127/69/58 58/70/59
f 127/71/58 57/72/60 58/73/59
f 126/74/61 57/72/60 127/71/58
f 57/72/60 126/74/61 112/75/62
f 64/76/63 65/77/64 66/78/65
f 75/79/66 70/80/67 72/81/68
f 72/82/68 73/83/69 74/84/70
f 88/85/71 75/86/66 74/87/70
f 120/88/72 73/83/69 84/89/73
f 71/90/74 84/89/73 72/82/68
f 84/89/73 85/91/75 120/88/72
f 85/92/75 84/93/73 83/94/76
f 85/92/75 83/94/76 86/95/56
f 86/67/56 87/96/77 52/63/52
f 89/97/78 65/77/64 97/98/79
f 99/99/80 91/100/81 90/101/82
f 68/102/83 90/101/82 92/103/84
f 92/103/84 67/104/85 68/102/83
f 67/104/85 92/103/84 95/105/86
f 91/100/81 97/98/79 96/106/87
f 95/105/86 63/107/88 98/108/89
f 56/109/90 97/98/79 57/72/60
f 55/110/91 60/111/92 92/103/84
f 54/112/93 126/74/61 78/113/94
f 73/83/69 72/82/68 84/89/73
f 102/114/95 100/115/96 101/116/97
f 58/70/59 59/117/98 101/116/97
f 102/114/95 64/118/63 100/115/96
f 104/119/99 105/120/100 103/121/101
f 80/122/102 114/123/103 107/124/104
f 119/125/105 106/126/106 108/127/107
f 114/128/103 119/125/105 108/127/107
f 119/125/105 122/129/108 106/126/106
f 109/130/109 122/129/108 113/131/110
f 118/132/111 110/133/112 117/134/113
f 111/135/114 120/88/72 93/136/115
f 113/137/110 118/132/111 109/138/109
f 80/122/102 117/134/113 81/139/116
f 85/92/75 81/139/116 120/140/72
f 113/131/110 110/141/112 118/142/111
f 120/88/72 115/143/117 93/136/115
f 114/123/103 80/122/102 104/119/99
f 115/144/117 81/139/116 111/145/114
f 88/85/71 104/119/99 80/122/102
f 88/85/71 80/122/102 79/146/118
f 119/125/105 120/88/72 113/131/110
f 109/138/109 117/134/113 80/122/102
f 119/125/105 105/147/100 94/148/119
f 120/88/72 111/135/114 113/131/110
f 101/116/97 63/107/88 51/62/51
f 76/149/120 75/86/66 88/85/71
f 79/146/118 76/149/120 88/85/71
f 77/150/121 79/146/118 82/151/122
f 72/81/68 69/152/123 71/153/74
f 96/106/87 97/98/79 56/109/90
f 57/72/60 97/98/79 65/77/64
f 123/154/124 102/155/95 59/156/98
f 90/101/82 96/106/87 55/110/91
f 123/154/124 65/77/64 64/76/63
f 63/107/88 101/116/97 98/108/89
f 55/110/91 56/109/90 126/74/61
f 58/70/59 124/64/53 128/68/57
f 89/157/78 131/158/125 129/159/126
f 98/160/89 132/161/127 121/162/128
f 62/163/129 130/164/130 68/165/83
f 89/157/78 129/159/126 66/166/65
f 99/167/80 131/158/125 91/168/81
f 53/169/131 124/64/53 52/63/52
f 78/113/94 127/71/58 70/170/67
f 70/171/67 127/69/58 128/68/57
f 53/169/131 87/96/77 69/172/123
f 128/68/57 124/64/53 53/169/131
f 58/70/59 51/62/51 124/64/53
f 112/75/62 126/74/61 56/109/90
f 125/65/54 60/111/92 55/110/91
f 125/65/54 61/66/55 60/111/92
f 61/66/55 51/62/51 63/107/88
f 65/77/64 89/97/78 66/78/65
f 62/173/129 68/102/83 67/104/85
f 75/174/66 72/82/68 74/84/70
f 76/149/120 70/175/67 75/86/66
f 78/113/94 79/176/118 77/177/121
f 79/176/118 78/113/94 76/178/120
f 79/146/118 80/122/102 81/139/116
f 81/139/116 82/151/122 79/146/118
f 81/139/116 85/92/75 82/151/122
f 83/179/76 84/89/73 71/90/74
f 87/96/77 86/67/56 83/180/76
f 92/103/84 61/66/55 95/105/86
f 76/178/120 78/113/94 70/170/67
f 91/100/81 89/97/78 97/98/79
f 68/102/83 99/99/80 90/101/82
f 67/104/85 95/105/86 62/173/129
f 96/106/87 56/109/90 55/110/91
f 70/171/67 53/169/131 69/172/123
f 95/105/86 61/66/55 63/107/88
f 54/112/93 86/67/56 125/65/54
f 90/101/82 91/100/81 96/106/87
f 77/150/121 85/92/75 86/95/56
f 98/108/89 101/116/97 100/115/96
f 77/177/121 54/112/93 78/113/94
f 103/121/101 114/123/103 104/119/99
f 119/125/105 113/131/110 122/129/108
f 106/181/106 122/182/108 109/138/109
f 74/84/70 73/83/69 94/148/119
f 115/144/117 120/140/72 81/139/116
f 103/121/101 105/120/100 116/183/132
f 114/128/103 108/127/107 107/184/104
f 110/133/112 111/145/114 117/134/113
f 113/131/110 111/135/114 110/141/112
f 74/87/70 94/185/119 88/85/71
f 104/119/99 88/85/71 94/185/119
f 120/88/72 119/125/105 73/83/69
f 94/148/119 73/83/69 119/125/105
f 121/186/128 62/173/129 98/108/89
f 62/173/129 95/105/86 98/108/89
f 116/187/132 105/147/100 114/128/103
f 107/124/104 106/181/106 80/122/102
f 57/72/60 59/156/98 58/73/59
f 118/132/111 117/134/113 109/138/109
f 111/145/114 93/188/115 115/144/117
f 94/185/119 105/120/100 104/119/99
f 106/181/106 109/138/109 80/122/102
f 111/145/114 81/139/116 117/134/113
f 119/125/105 114/128/103 105/147/100
f 58/70/59 101/116/97 51/62/51
f 69/152/123 83/94/76 71/153/74
f 57/72/60 112/75/62 56/109/90
f 85/92/75 77/150/121 82/151/122
f 129/159/126 100/189/96 64/190/63
f 69/152/123 72/81/68 70/80/67
f 57/72/60 65/77/64 123/154/124
f 101/116/97 59/117/98 102/114/95
f 90/101/82 55/110/91 92/103/84
f 123/154/124 64/76/63 102/155/95
f 54/112/93 125/65/54 55/110/91
f 54/112/93 55/110/91 126/74/61
f 99/167/80 130/164/130 131/158/125
f 62/163/129 121/162/128 132/161/127
f 89/157/78 91/168/81 131/158/125
f 64/190/63 66/166/65 129/159/126
f 98/160/89 100/189/96 132/161/127
f 62/163/129 132/161/127 130/164/130
f 4/49/43 2/5/5 31/1/1
f 24/26/24 20/2/2 14/50/22
f 51/62/51 61/66/55 52/63/52
f 78/113/94 126/74/61 127/71/58
f 53/169/131 52/63/52 87/96/77
f 92/103/84 60/111/92 61/66/55
f 70/171/67 128/68/57 53/169/131
f 54/112/93 77/177/121 86/67/56
f 103/121/101 116/183/132 114/123/103
f 107/124/104 108/191/107 106/181/106
f 57/72/60 123/154/124 59/156/98
f 69/152/123 87/192/77 83/94/76
f 129/159/126 132/161/127 100/189/96
f 99/167/80 68/165/83 130/164/130
