# Blender v2.83.0 OBJ File: ''
# www.blender.org
mtllib rightleg.mtl
o LegR_Body.013
v -0.110115 -0.473070 -0.322178
v -0.041722 -0.522937 -0.287548
v -0.046223 -0.631697 -0.326132
v -0.101273 -0.722636 -0.338753
v -0.209351 -0.736040 -0.266325
v -0.174377 -0.598816 -0.327728
v -0.041287 -0.539970 -0.200696
v -0.120196 -0.566352 -0.150271
v -0.043066 -0.760468 -0.236014
v -0.284907 -0.259343 -0.260388
v -0.229374 -0.068271 -0.291689
v -0.199735 -0.286614 -0.350880
v -0.223459 -0.269307 -0.071390
v -0.084126 -0.450274 -0.110431
v -0.091689 -0.156657 -0.052690
v -0.189087 -0.484057 -0.281933
v -0.197972 -0.511312 -0.214383
v -0.035370 -0.730163 -0.300490
v -0.024621 -0.292704 -0.238934
v 0.000426 -0.123871 -0.124284
v -0.029648 -0.284347 -0.135684
v -0.030890 -0.146065 -0.294382
v -0.072040 -0.318916 -0.331393
v -0.021133 -0.429187 -0.166716
v -0.262019 -0.273142 -0.119079
v -0.174214 -0.529918 -0.171434
v -0.174783 -0.751935 -0.178941
v 0.042561 -0.094396 -0.038614
v -0.075240 -0.076432 -0.026763
v -0.021930 -0.110550 -0.069001
v -0.005003 -0.027323 0.005286
v 0.024844 0.049693 -0.009005
v -0.083111 0.039520 -0.026146
v -0.146032 0.040588 -0.072152
v -0.230684 -0.002660 -0.095112
v -0.214388 0.079961 -0.126636
v -0.237501 0.082001 -0.188918
v -0.264463 -0.023998 -0.200387
v -0.069982 -0.034777 -0.377803
v -0.114152 -0.002105 -0.380619
v -0.047755 0.160565 -0.349324
v -0.116474 0.141179 -0.340771
v -0.009427 -0.128278 -0.318507
v 0.012911 -0.015218 -0.365087
v -0.138061 -0.129891 -0.332636
v -0.168771 0.137278 -0.320414
v -0.115965 -0.734134 -0.170025
v -0.210354 0.119952 -0.299200
v -0.104635 -0.576369 -0.337907
v -0.086150 -0.456146 -0.295788
v -0.043400 -0.587710 -0.303704
v -0.177416 -0.469169 -0.202436
v -0.184301 -0.560655 -0.295126
v -0.183306 -0.691757 -0.230191
v -0.162642 -0.640813 -0.196494
v -0.039828 -0.635219 -0.255545
v -0.050372 -0.735815 -0.309719
v -0.082225 -0.467233 -0.149488
v -0.079067 -0.523913 -0.187870
v -0.026641 -0.420635 -0.192405
v -0.123544 -0.551070 -0.175171
v -0.115900 -0.466989 -0.143924
v -0.179144 -0.465445 -0.249374
v -0.151390 -0.452990 -0.287160
v -0.095067 -0.351040 -0.311908
v -0.063266 -1.002769 -0.289841
v -0.101748 -0.984742 -0.328814
v -0.070488 -0.865595 -0.292662
v -0.052162 -0.847486 -0.248825
v -0.049297 -0.953713 -0.164507
v -0.119876 -1.007773 -0.175652
v -0.077320 -0.855870 -0.203758
v -0.108992 -0.890203 -0.184238
v -0.172486 -0.988829 -0.137350
v -0.162912 -0.996587 -0.048653
v -0.142917 -0.853845 -0.287368
v -0.196209 -0.247915 -0.077991
v -0.112324 -0.266756 -0.074713
v -0.120123 -0.098205 -0.063345
v -0.258145 -0.262409 -0.268646
v -0.242915 -0.072944 -0.249029
v -0.190983 -0.237268 -0.329863
v -0.161019 -1.009544 -0.082067
v -0.072855 -0.113753 -0.286347
v -0.161553 -0.913948 -0.234350
v -0.154401 -0.833819 -0.231735
v -0.149408 -0.567975 -0.327985
v -0.231913 -0.084672 -0.101038
v -0.267036 -0.133650 -0.193189
v -0.034691 -0.124706 -0.257046
v -0.002332 -0.129702 -0.176473
v -0.033200 -0.320690 -0.234479
v -0.038655 -0.277923 -0.129087
v -0.122328 -1.004386 -0.053601
v -0.141424 -0.995400 -0.058393
v -0.146026 -1.003261 -0.067156
v -0.041415 -1.001536 -0.080206
v -0.138349 -0.979733 -0.051155
v -0.150161 -0.992076 -0.062366
v -0.109349 -1.015194 -0.010356
v -0.100899 -1.001238 -0.044676
v -0.094975 -0.969017 -0.046695
v -0.076042 -0.996658 -0.045687
v -0.064713 -0.979470 -0.047647
v -0.043239 -0.997449 -0.003870
v -0.048768 -1.016394 -0.022813
v -0.074999 -1.006224 -0.006919
v -0.092506 -1.014986 -0.009548
v -0.147740 -1.010537 -0.046461
v -0.104329 -0.942967 -0.076993
v -0.063721 -0.913175 -0.165362
v -0.045978 -0.975252 -0.058383
v -0.158722 -0.096216 -0.299906
v -0.114740 -1.000212 -0.030051
v -0.130167 -1.014414 -0.021221
v -0.120111 -0.977732 -0.047283
v -0.174914 -0.319666 -0.326986
v -0.231718 -0.315114 -0.145510
v -0.094363 -0.739726 -0.205002
v -0.119596 -0.101676 -0.199047
v -0.114185 -0.102806 -0.190207
v -0.041343 -0.117066 -0.084760
v -0.123036 -0.100970 -0.190810
v -0.048233 -0.496370 -0.247057
v -0.131091 -1.001489 -0.307087
v -0.149377 -0.973389 -0.265210
v -0.067775 -1.003763 -0.008440
v -0.119849 -0.995304 -0.040605
v -0.067852 -0.990575 -0.039290
vt 0.269286 0.909110
vt 0.270736 0.908694
vt 0.271847 0.910195
vt 0.272430 0.911741
vt 0.271307 0.913528
vt 0.270312 0.911437
vt 0.286650 0.894733
vt 0.285930 0.893156
vt 0.290174 0.892798
vt 0.264344 0.909289
vt 0.261912 0.906716
vt 0.265579 0.908100
vt 0.280385 0.894715
vt 0.284107 0.894972
vt 0.279860 0.897436
vt 0.268268 0.910536
vt 0.267909 0.911846
vt 0.273255 0.910925
vt 0.283295 0.898536
vt 0.280615 0.900291
vt 0.282805 0.897686
vt 0.268676 0.905045
vt 0.265735 0.903254
vt 0.268362 0.902664
vt 0.267556 0.906771
vt 0.270287 0.906490
vt 0.271708 0.908044
vt 0.280118 0.893657
vt 0.284803 0.892340
vt 0.284963 0.896106
vt 0.288480 0.890441
vt 0.284210 0.891509
vt 0.278679 0.901194
vt 0.278043 0.898676
vt 0.279423 0.899582
vt 0.277069 0.900095
vt 0.275721 0.900815
vt 0.275745 0.898808
vt 0.275368 0.897484
vt 0.276158 0.895792
vt 0.274448 0.896047
vt 0.274018 0.895098
vt 0.275459 0.894174
vt 0.262089 0.903018
vt 0.261081 0.904319
vt 0.258385 0.902801
vt 0.258548 0.903970
vt 0.264838 0.902096
vt 0.261935 0.901607
vt 0.263691 0.905451
vt 0.258510 0.904966
vt 0.279053 0.892285
vt 0.260304 0.908055
vt 0.288810 0.891447
vt 0.270794 0.914273
vt 0.274010 0.910623
vt 0.258679 0.905991
vt 0.258628 0.907776
vt 0.374089 0.561999
vt 0.398939 0.568884
vt 0.369385 0.572922
vt 0.409655 0.534903
vt 0.382595 0.545906
vt 0.357809 0.534851
vt 0.369220 0.525029
vt 0.358168 0.581447
vt 0.339717 0.568435
vt 0.417307 0.512463
vt 0.400339 0.506142
vt 0.427383 0.502525
vt 0.393866 0.519388
vt 0.415177 0.518952
vt 0.405540 0.544445
vt 0.404343 0.554503
vt 0.431452 0.572315
vt 0.063570 0.760833
vt 0.071841 0.760759
vt 0.066596 0.775226
vt 0.055654 0.774461
vt 0.053579 0.761150
vt 0.106261 0.724416
vt 0.128386 0.729639
vt 0.104973 0.742185
vt 0.094492 0.785113
vt 0.105927 0.794955
vt 0.090623 0.792334
vt 0.096596 0.777868
vt 0.106493 0.756051
vt 0.125431 0.750021
vt 0.306427 0.560533
vt 0.312602 0.547260
vt 0.462476 0.531063
vt 0.462451 0.521245
vt 0.487584 0.527036
vt 0.455511 0.551674
vt 0.485173 0.557072
vt 0.460149 0.563029
vt 0.091561 0.710413
vt 0.083990 0.715758
vt 0.072710 0.712052
vt 0.483187 0.579910
vt 0.308507 0.575255
vt 0.081244 0.774630
vt 0.088665 0.770147
vt 0.086754 0.774937
vt 0.377445 0.554697
vt 0.486224 0.539460
vt 0.476082 0.548126
vt 0.482572 0.588615
vt 0.481482 0.603111
vt 0.433550 0.587636
vt 0.456224 0.505959
vt 0.310455 0.519901
vt 0.314037 0.513254
vt 0.316299 0.533417
vt 0.077623 0.726043
vt 0.076123 0.719310
vt 0.079494 0.719873
vt 0.086094 0.743626
vt 0.122804 0.756710
vt 0.122299 0.761400
vt 0.122060 0.756949
vt 0.140744 0.771725
vt 0.130529 0.774905
vt 0.126976 0.776223
vt 0.129249 0.785805
vt 0.128553 0.787845
vt 0.135705 0.794154
vt 0.134876 0.798055
vt 0.120817 0.796233
vt 0.139737 0.783962
vt 0.075682 0.733525
vt 0.074286 0.741105
vt 0.064101 0.739444
vt 0.063820 0.730981
vt 0.073299 0.714752
vt 0.077209 0.717959
vt 0.112775 0.775699
vt 0.101473 0.786863
vt 0.124180 0.790736
vt 0.483921 0.569076
vt 0.141798 0.779858
vt 0.133908 0.765812
vt 0.136508 0.758738
vt 0.125486 0.767248
vt 0.438420 0.561993
vt 0.447252 0.537455
vt 0.442306 0.601319
vt 0.407078 0.591936
vt 0.343342 0.514497
vt 0.179531 0.852354
vt 0.229572 0.865442
vt 0.185847 0.889603
vt 0.246493 0.918539
vt 0.232790 0.867202
vt 0.287596 0.899131
vt 0.292264 0.854804
vt 0.232495 0.863740
vt 0.271546 0.811450
vt 0.202347 0.811287
vt 0.320801 0.504489
vt 0.356124 0.503843
vt 0.389300 0.582932
vt 0.382463 0.592492
vt 0.487246 0.512587
vt 0.307745 0.527565
vt 0.134550 0.717520
vt 0.137181 0.725928
vt 0.078708 0.757457
vt 0.086949 0.760304
vt 0.071179 0.750820
vt 0.068302 0.753085
vt 0.066990 0.749015
vt 0.484763 0.503288
vt 0.071481 0.725852
vt 0.068160 0.726760
vt 0.065533 0.742869
vt 0.130848 0.750932
vt 0.127633 0.764768
vt 0.067101 0.720956
vt 0.132094 0.787899
vt 0.138364 0.791182
vt 0.072214 0.743484
vt 0.205780 0.909996
vt 0.107630 0.707474
vn 0.0296 -0.0411 -0.9987
vn 0.8916 0.0608 -0.4488
vn 0.6597 0.0490 -0.7499
vn -0.0101 -0.1298 -0.9915
vn -0.9781 -0.0968 -0.1840
vn -0.5599 0.0422 -0.8275
vn 0.9047 -0.1745 0.3886
vn 0.0668 -0.1880 0.9799
vn 0.8812 -0.0622 0.4686
vn -0.9522 -0.1103 -0.2849
vn -0.7421 0.1529 -0.6527
vn -0.3604 -0.0635 -0.9306
vn -0.4486 -0.1427 0.8822
vn 0.2831 -0.3237 0.9028
vn 0.1105 -0.1757 0.9782
vn -0.8009 -0.1191 -0.5868
vn -0.9757 -0.1785 0.1273
vn 0.9416 -0.0714 -0.3290
vn 0.9677 -0.0754 -0.2405
vn 0.9427 -0.2471 0.2242
vn 0.8856 -0.1181 0.4491
vn 0.4034 -0.3446 -0.8477
vn 0.5475 -0.0260 -0.8364
vn 0.9412 -0.1603 0.2975
vn -0.9024 -0.1322 0.4101
vn -0.6809 -0.1920 0.7068
vn -0.6517 -0.0639 0.7558
vn -0.1333 -0.8181 0.5595
vn -0.2623 -0.2752 0.9249
vn 0.3649 -0.5798 0.7285
vn -0.3905 0.1991 0.8988
vn -0.2256 0.1928 0.9549
vn -0.3962 0.0263 0.9178
vn -0.4674 0.5201 0.7149
vn -0.7456 0.2083 0.6330
vn -0.8026 0.3122 0.5083
vn -0.9668 0.2108 0.1446
vn -0.9895 0.1118 -0.0916
vn 0.1207 -0.1646 -0.9789
vn -0.2949 -0.0518 -0.9541
vn -0.0550 0.2040 -0.9774
vn -0.2758 0.2524 -0.9275
vn -0.1974 -0.5804 -0.7900
vn 0.1599 -0.1317 -0.9783
vn -0.0695 -0.2702 -0.9603
vn -0.4507 0.1988 -0.8703
vn 0.3019 -0.1012 0.9479
vn -0.7011 0.1019 -0.7057
vn 0.1151 0.0936 -0.9889
vn 0.4312 0.1107 -0.8954
vn 0.8479 0.1008 -0.5205
vn -0.8760 -0.2585 0.4072
vn -0.9038 0.0654 -0.4230
vn -0.9613 -0.1416 0.2362
vn -0.5201 -0.1051 0.8476
vn 0.9615 -0.0427 0.2713
vn 0.7077 -0.1284 -0.6948
vn 0.4701 -0.3522 0.8093
vn 0.7039 -0.2725 0.6560
vn 0.9605 -0.1804 0.2118
vn -0.0884 -0.1706 0.9814
vn -0.2187 -0.3774 0.8998
vn -0.9602 -0.0959 -0.2623
vn -0.4882 -0.0060 -0.8727
vn 0.4527 -0.0833 -0.8878
vn 0.6835 -0.6515 -0.3292
vn -0.0119 -0.2818 -0.9594
vn 0.5689 0.0140 -0.8223
vn 0.9951 0.0394 0.0910
vn 0.9846 -0.1750 0.0046
vn 0.1908 -0.9812 -0.0292
vn 0.6046 0.3015 0.7373
vn -0.3544 0.5410 0.7627
vn -0.9962 -0.0868 0.0096
vn -0.6029 0.0784 0.7940
vn -0.6860 -0.0259 -0.7272
vn -0.4955 -0.1682 0.8522
vn 0.2139 -0.2177 0.9523
vn 0.1068 0.6664 0.7379
vn -0.9164 -0.1479 -0.3720
vn -0.4558 0.8190 -0.3485
vn -0.2403 0.0681 -0.9683
vn -0.5396 -0.8403 0.0517
vn 0.3257 0.6991 -0.6366
vn -0.9913 0.1285 0.0274
vn -0.9576 -0.0984 0.2707
vn -0.4365 0.0909 -0.8951
vn -0.5314 0.6810 0.5038
vn -0.9890 0.1365 0.0562
vn 0.5644 0.5971 -0.5700
vn 0.8020 0.5927 0.0746
vn 0.9410 -0.0372 -0.3364
vn 0.8354 -0.1622 0.5251
vn 0.0792 -0.9920 0.0986
vn -0.6825 -0.4367 0.5861
vn 0.2363 -0.8147 0.5295
vn 0.7819 -0.6181 -0.0808
vn -0.5023 0.5003 0.7053
vn 0.6622 -0.2393 0.7101
vn -0.0207 -0.5426 0.8398
vn 0.1888 -0.9789 0.0786
vn 0.0612 0.6712 0.7387
vn 0.2810 -0.8359 0.4714
vn 0.2992 0.5107 0.8060
vn 0.4851 0.2418 0.8404
vn 0.2026 -0.9689 0.1423
vn 0.5957 -0.1170 0.7947
vn -0.3872 -0.6609 0.6429
vn 0.3740 -0.5328 0.7591
vn -0.0915 0.8470 0.5236
vn 0.6949 0.6192 0.3656
vn 0.7225 0.6085 0.3281
vn 0.0354 0.4908 -0.8706
vn -0.5725 0.5478 0.6100
vn -0.0299 -0.6012 0.7986
vn -0.1050 0.6406 0.7607
vn -0.2794 -0.1946 -0.9403
vn -0.8482 -0.3182 0.4234
vn 0.4573 -0.0108 0.8892
vn 0.2967 0.9349 -0.1946
vn 0.2909 0.9567 -0.0056
vn 0.6206 0.4747 0.6241
vn 0.1675 0.9853 0.0346
vn 0.9941 -0.0171 -0.1068
vn -0.5807 -0.5327 -0.6156
vn -0.9266 -0.1315 -0.3523
vn -0.8064 -0.1010 0.5827
vn -0.9449 -0.0912 0.3145
vn -0.5504 0.4985 0.6697
usemtl M.001
s 1
f 1/1/1 2/2/2 3/3/3
f 4/4/4 5/5/5 6/6/6
f 7/7/7 8/8/8 9/9/9
f 10/10/10 11/11/11 12/12/12
f 13/13/13 14/14/14 15/15/15
f 16/16/16 17/17/17 10/10/10
f 4/4/4 3/3/3 18/18/18
f 19/19/19 20/20/20 21/21/21
f 21/21/21 15/15/15 14/14/14
f 19/22/19 22/23/22 20/24/20
f 1/1/1 23/25/23 2/2/2
f 19/22/19 24/26/24 7/27/7
f 13/13/13 25/28/25 26/29/26
f 21/21/21 14/14/14 24/30/24
f 19/19/19 21/21/21 24/30/24
f 23/25/23 1/1/1 12/12/12
f 27/31/27 26/29/26 17/32/17
f 3/3/3 2/2/2 18/18/18
f 6/6/6 1/1/1 4/4/4
f 16/16/16 6/6/6 5/5/5
f 28/33/28 29/34/29 30/35/30
f 31/36/31 32/37/32 33/38/33
f 34/39/34 35/40/35 33/38/33
f 35/40/35 31/36/31 33/38/33
f 36/41/36 37/42/37 38/43/38
f 34/39/34 36/41/36 35/40/35
f 39/44/39 40/45/40 41/46/41
f 42/47/42 41/46/41 40/45/40
f 43/48/43 39/44/39 44/49/44
f 11/11/11 40/45/40 45/50/45
f 45/50/45 40/45/40 39/44/39
f 42/47/42 40/45/40 46/51/46
f 1/1/1 6/6/6 16/16/16
f 2/2/2 19/22/19 7/27/7
f 26/29/26 8/8/8 14/14/14
f 35/40/35 15/15/15 29/34/29
f 12/12/12 11/11/11 45/50/45
f 17/32/17 25/28/25 10/52/10
f 17/32/17 26/29/26 25/28/25
f 10/10/10 12/12/12 16/16/16
f 1/1/1 16/16/16 12/12/12
f 25/28/25 38/43/38 10/52/10
f 35/40/35 25/28/25 13/13/13
f 10/10/10 38/53/38 11/11/11
f 15/15/15 30/35/30 29/34/29
f 45/50/45 23/25/23 12/12/12
f 20/20/20 30/35/30 21/21/21
f 22/23/22 19/22/19 23/25/23
f 39/44/39 22/23/22 45/50/45
f 14/14/14 7/7/7 24/30/24
f 2/2/2 23/25/23 19/22/19
f 8/8/8 27/31/27 47/54/47
f 14/14/14 13/13/13 26/29/26
f 5/5/5 27/55/27 17/17/17
f 7/27/7 9/56/9 18/18/18
f 4/4/4 1/1/1 3/3/3
f 17/17/17 16/16/16 5/5/5
f 9/9/9 8/8/8 47/54/47
f 18/18/18 2/2/2 7/27/7
f 48/57/48 38/53/38 37/58/37
f 46/51/46 40/45/40 48/57/48
f 44/49/44 39/44/39 41/46/41
f 43/48/43 22/23/22 39/44/39
f 35/40/35 29/34/29 31/36/31
f 35/40/35 36/41/36 38/43/38
f 48/57/48 11/11/11 38/53/38
f 11/11/11 48/57/48 40/45/40
f 49/59/49 50/60/50 51/61/51
f 52/62/52 53/63/53 54/64/54
f 54/64/54 55/65/55 52/62/52
f 56/66/56 57/67/57 51/61/51
f 58/68/58 59/69/59 60/70/60
f 55/65/55 61/71/61 52/62/52
f 62/72/62 52/62/52 61/71/61
f 61/71/61 58/68/58 62/72/62
f 53/63/53 52/62/52 63/73/63
f 64/74/64 65/75/65 50/60/50
f 66/76/66 67/77/67 68/78/68
f 69/79/69 70/80/70 66/76/66
f 71/81/71 66/82/66 70/83/70
f 72/84/72 70/85/70 69/86/69
f 73/87/73 74/88/74 75/89/75
f 68/90/68 76/91/76 49/59/49
f 77/92/77 78/93/78 79/94/79
f 80/95/80 81/96/81 82/97/82
f 74/98/74 83/99/83 75/100/75
f 65/75/65 82/97/82 84/101/84
f 57/67/57 56/66/56 69/102/69
f 76/103/76 85/104/85 86/105/86
f 53/63/53 87/106/87 76/91/76
f 76/91/76 54/64/54 53/63/53
f 88/107/88 77/92/77 79/94/79
f 81/96/81 89/108/89 88/107/88
f 90/109/90 91/110/91 92/111/92
f 60/70/60 93/112/93 58/68/58
f 73/113/73 72/114/72 55/65/55
f 55/65/55 86/115/86 73/113/73
f 54/64/54 76/91/76 86/115/86
f 86/115/86 55/65/55 54/64/54
f 94/116/94 95/117/95 96/118/96
f 70/83/70 97/119/97 71/81/71
f 95/120/95 98/121/98 99/122/99
f 100/123/100 101/124/101 102/125/102
f 102/125/102 103/126/103 104/127/104
f 105/128/105 106/129/106 97/130/97
f 107/131/107 103/126/103 102/125/102
f 101/132/101 103/133/103 108/134/108
f 101/132/101 100/135/100 94/116/94
f 109/136/109 96/118/96 99/137/99
f 96/118/96 109/136/109 83/99/83
f 98/121/98 110/138/110 75/89/75
f 70/85/70 111/139/111 97/130/97
f 112/140/112 97/130/97 111/139/111
f 83/99/83 71/81/71 97/119/97
f 113/141/113 84/101/84 82/97/82
f 108/142/108 107/131/107 102/125/102
f 100/123/100 102/125/102 114/143/114
f 115/144/115 116/145/116 98/121/98
f 83/99/83 97/119/97 94/116/94
f 110/138/110 98/121/98 116/145/116
f 116/145/116 102/125/102 110/138/110
f 99/122/99 98/121/98 75/89/75
f 103/133/103 101/132/101 97/119/97
f 101/132/101 94/116/94 97/119/97
f 96/118/96 83/99/83 94/116/94
f 72/84/72 73/87/73 111/139/111
f 80/95/80 117/146/117 63/73/63
f 77/92/77 118/147/118 62/72/62
f 58/68/58 78/93/78 62/72/62
f 92/111/92 93/148/93 60/149/60
f 65/75/65 117/146/117 82/97/82
f 57/67/57 49/59/49 51/61/51
f 59/69/59 61/71/61 119/150/119
f 113/151/113 120/152/120 84/153/84
f 91/154/91 121/155/121 122/156/122
f 79/157/79 123/158/123 88/159/88
f 81/160/81 123/158/123 120/152/120
f 87/106/87 64/74/64 49/59/49
f 49/59/49 76/91/76 87/106/87
f 87/106/87 53/63/53 64/74/64
f 119/150/119 69/161/69 56/162/56
f 55/65/55 119/150/119 61/71/61
f 51/61/51 50/60/50 124/163/124
f 56/66/56 124/163/124 59/164/59
f 60/149/60 59/164/59 124/163/124
f 61/71/61 59/69/59 58/68/58
f 64/74/64 53/63/53 63/73/63
f 50/60/50 49/59/49 64/74/64
f 122/165/122 79/94/79 78/93/78
f 113/141/113 82/97/82 81/96/81
f 119/150/119 72/114/72 69/161/69
f 73/113/73 86/115/86 85/166/85
f 75/89/75 110/138/110 73/87/73
f 83/99/83 125/167/125 71/81/71
f 67/168/67 66/82/66 125/167/125
f 74/88/74 73/87/73 85/104/85
f 67/77/67 125/169/125 126/170/126
f 49/59/49 57/67/57 68/90/68
f 81/96/81 80/95/80 89/108/89
f 106/171/106 105/172/105 127/173/127
f 82/97/82 117/146/117 80/95/80
f 88/107/88 118/147/118 77/92/77
f 62/72/62 118/147/118 52/62/52
f 63/73/63 117/146/117 64/74/64
f 65/75/65 64/74/64 117/146/117
f 68/90/68 57/67/57 69/102/69
f 68/78/68 69/79/69 66/76/66
f 84/101/84 92/111/92 65/75/65
f 126/170/126 74/88/74 85/104/85
f 71/81/71 125/167/125 66/82/66
f 91/174/91 122/165/122 93/112/93
f 74/98/74 125/167/125 83/99/83
f 78/93/78 93/112/93 122/165/122
f 91/110/91 93/148/93 92/111/92
f 55/65/55 72/114/72 119/150/119
f 97/119/97 106/171/106 103/133/103
f 128/175/128 100/135/100 114/176/114
f 83/99/83 109/136/109 75/100/75
f 112/140/112 105/128/105 97/130/97
f 107/177/107 108/134/108 103/133/103
f 108/142/108 102/125/102 101/124/101
f 98/121/98 95/120/95 115/144/115
f 75/89/75 109/178/109 99/122/99
f 116/145/116 115/144/115 94/179/94
f 94/116/94 115/180/115 95/117/95
f 105/128/105 129/181/129 127/182/127
f 129/183/129 106/171/106 127/173/127
f 104/127/104 129/181/129 112/140/112
f 92/111/92 50/60/50 65/75/65
f 118/147/118 89/108/89 80/95/80
f 94/116/94 100/135/100 128/175/128
f 116/145/116 114/143/114 102/125/102
f 102/125/102 104/127/104 112/140/112
f 112/140/112 111/139/111 110/138/110
f 111/139/111 73/87/73 110/138/110
f 110/138/110 102/125/102 112/140/112
f 126/170/126 76/103/76 67/77/67
f 124/163/124 92/111/92 60/149/60
f 72/84/72 111/139/111 70/85/70
f 121/155/121 90/184/90 120/152/120
f 76/103/76 68/78/68 67/77/67
f 52/62/52 80/95/80 63/73/63
f 78/93/78 77/92/77 62/72/62
f 93/112/93 78/93/78 58/68/58
f 80/95/80 52/62/52 118/147/118
f 119/150/119 56/162/56 59/69/59
f 51/61/51 124/163/124 56/66/56
f 79/157/79 121/155/121 123/158/123
f 113/151/113 81/160/81 120/152/120
f 90/184/90 84/153/84 120/152/120
f 79/157/79 122/156/122 121/155/121
f 81/160/81 88/159/88 123/158/123
f 35/40/35 13/13/13 15/15/15
f 25/28/25 35/40/35 38/43/38
f 15/15/15 21/21/21 30/35/30
f 45/50/45 22/23/22 23/25/23
f 14/14/14 8/8/8 7/7/7
f 8/8/8 26/29/26 27/31/27
f 84/101/84 90/109/90 92/111/92
f 74/98/74 126/185/126 125/167/125
f 105/128/105 112/140/112 129/181/129
f 129/183/129 103/133/103 106/171/106
f 92/111/92 124/163/124 50/60/50
f 118/147/118 88/107/88 89/108/89
f 126/170/126 85/104/85 76/103/76
f 121/155/121 91/154/91 90/184/90
