# Blender v2.83.0 OBJ File: 'zombie1.blend'
# www.blender.org
mtllib rightarm.mtl
o RightArms_Body.001
v -0.169383 0.033530 -0.125032
v -0.132848 -0.047672 -0.160673
v -0.156820 -0.083303 -0.083723
v -0.531525 -0.076194 -0.117801
v -0.483615 -0.057356 -0.067719
v -0.486475 -0.031347 -0.038501
v -0.502519 -0.015934 -0.037373
v -0.515391 -0.005477 -0.090822
v -0.571316 -0.051142 -0.137431
v -0.505529 -0.024447 -0.120705
v -0.596799 -0.011971 -0.043754
v -0.633274 -0.039311 -0.118954
v -0.634260 -0.028704 -0.054573
v -0.564933 -0.085199 -0.014178
v -0.582321 -0.063026 -0.017033
v -0.538052 -0.076473 -0.002427
v -0.553894 -0.057026 0.009595
v -0.675471 -0.038780 -0.031224
v -0.723697 -0.062400 -0.051603
v -0.660590 -0.056163 -0.132904
v -0.725993 -0.070630 -0.041205
v -0.732188 -0.067292 -0.098498
v -0.709607 -0.067717 -0.119238
v -0.710880 -0.058626 -0.125333
v -0.708355 -0.058207 -0.111339
v -0.030461 -0.044676 -0.003798
v -0.165344 -0.064281 -0.052710
v -0.036009 -0.095391 -0.066038
v -0.072430 -0.101227 -0.127601
v -0.174615 -0.026955 -0.156180
v -0.192656 0.037049 -0.093154
v -0.165996 -0.073133 -0.134432
v -0.243897 -0.072890 -0.047457
v -0.266801 -0.054057 -0.161932
v -0.283935 0.025754 -0.149661
v -0.333778 0.043987 -0.103322
v -0.367840 0.035602 -0.060451
v -0.263269 -0.093823 -0.120481
v -0.273172 -0.006734 -0.169018
v -0.299805 0.015765 -0.043670
v -0.492967 0.003730 -0.050091
v -0.474438 0.010286 -0.100319
v -0.491297 -0.047989 -0.118880
v -0.483726 -0.060641 -0.080654
v -0.688085 -0.037657 -0.057230
v -0.685994 -0.041520 -0.086347
v -0.684159 -0.055582 -0.090500
v -0.682310 -0.039302 -0.049661
v -0.633409 -0.046164 -0.054314
v -0.599841 -0.034708 -0.027338
v -0.689418 -0.060828 -0.034329
v -0.732492 -0.059575 -0.035728
v -0.689808 -0.032909 -0.077899
v -0.699816 -0.053291 -0.079983
v -0.625768 -0.053494 -0.079619
v -0.701280 -0.056614 -0.061528
v -0.743483 -0.055554 -0.060889
v -0.686378 -0.054437 -0.106687
v -0.639079 -0.031346 -0.106579
v -0.693572 -0.039395 -0.101586
v -0.613383 -0.038952 -0.132947
v -0.623174 -0.052118 -0.109598
v -0.676921 -0.065037 -0.115909
v -0.743305 -0.061139 -0.077212
v -0.738873 -0.054924 -0.094507
v -0.638713 -0.034645 -0.085809
v -0.623977 -0.101508 0.006283
v -0.623314 -0.111069 0.023887
v -0.618733 -0.079132 0.012698
v -0.629522 -0.099219 0.033980
v -0.580341 -0.050589 -0.009786
v -0.519591 -0.076475 -0.064584
v -0.603129 -0.075917 0.019020
v -0.624828 -0.053675 -0.036256
v -0.144125 0.026910 -0.038976
v -0.189373 -0.020953 -0.048625
v -0.286473 -0.020729 -0.034420
v -0.051300 0.018100 -0.000269
v -0.138028 -0.031663 -0.025610
v 0.025782 -0.017020 -0.004115
v 0.066285 -0.078880 -0.072486
v -0.043542 0.011698 -0.174242
v 0.022123 0.084344 -0.088790
v 0.027076 0.072899 -0.140118
v -0.613536 -0.063774 -0.123862
v 0.027522 0.074285 -0.037392
v 0.036012 0.045590 -0.182002
v -0.070874 -0.065929 -0.175512
v 0.067380 -0.036489 -0.176658
v -0.580021 -0.060233 -0.068661
v -0.607401 -0.011405 -0.075747
v 0.061150 -0.030542 0.000242
v 0.072072 -0.076548 -0.144957
v 0.043280 0.033160 -0.000038
v 0.052669 -0.007588 -0.079344
v 0.050678 -0.000460 -0.078835
v 0.049618 0.002818 -0.088426
v 0.051448 -0.002874 -0.094639
v 0.053614 -0.012333 -0.088573
vt 0.732537 0.532896
vt 0.710697 0.545560
vt 0.690703 0.527310
vt 0.862343 0.538227
vt 0.841244 0.548322
vt 0.828791 0.522418
vt 0.880590 0.667820
vt 0.853733 0.667030
vt 0.852607 0.650114
vt 0.891094 0.551060
vt 0.853794 0.572039
vt 0.942393 0.650957
vt 0.907996 0.626071
vt 0.935108 0.624996
vt 0.918370 0.681718
vt 0.886530 0.659090
vt 0.948546 0.530808
vt 0.919553 0.519749
vt 0.964644 0.526625
vt 0.942639 0.541196
vt 0.909830 0.532548
vt 0.914315 0.686733
vt 0.886545 0.677700
vt 0.678203 0.675917
vt 0.730089 0.660402
vt 0.731356 0.681018
vt 0.723312 0.591378
vt 0.731019 0.564625
vt 0.762222 0.569220
vt 0.767265 0.687615
vt 0.763794 0.669166
vt 0.761776 0.554078
vt 0.681869 0.514867
vt 0.732496 0.519023
vt 0.763636 0.528833
vt 0.831960 0.597934
vt 0.780671 0.602128
vt 0.764741 0.585708
vt 0.861211 0.596639
vt 0.936377 0.577352
vt 0.963325 0.568417
vt 0.965879 0.574958
vt 0.935296 0.567821
vt 0.932720 0.562626
vt 0.968540 0.541247
vt 0.941222 0.626742
vt 0.966208 0.663778
vt 0.888542 0.476769
vt 0.873027 0.474152
vt 0.909079 0.444165
vt 0.901808 0.444473
vt 0.919781 0.427553
vt 0.933919 0.459673
vt 0.922326 0.463790
vt 0.945190 0.446070
vt 0.905296 0.477156
vt 0.924930 0.436207
vt 0.965604 0.536816
vt 0.965520 0.531140
vt 0.951125 0.450026
vt 0.943434 0.597165
vt 0.964763 0.582732
vt 0.962460 0.624103
vt 0.912519 0.496120
vt 0.966576 0.617319
vt 0.973194 0.613224
vt 0.951237 0.650219
vt 0.730520 0.610620
vt 0.845756 0.458877
vt 0.837256 0.459129
vt 0.831640 0.450428
vt 0.859590 0.479795
vt 0.861867 0.475511
vt 0.908001 0.670837
vt 0.899180 0.652493
vt 0.830324 0.456214
vt 0.847240 0.483911
vt 0.917763 0.605530
vt 0.736337 0.641229
vt 0.707027 0.622564
vt 0.712116 0.645450
vt 0.794519 0.617317
vt 0.772565 0.628115
vt 0.772130 0.646938
vt 0.848983 0.671803
vt 0.665865 0.629970
vt 0.668580 0.648979
vt 0.623145 0.511299
vt 0.622129 0.525102
vt 0.621850 0.604539
vt 0.621073 0.591337
vt 0.875854 0.503191
vt 0.851514 0.507358
vt 0.828937 0.512042
vt 0.617909 0.656393
vt 0.618577 0.638774
vt 0.634511 0.648679
vt 0.621821 0.542638
vt 0.685341 0.546782
vt 0.916207 0.561590
vt 0.624079 0.681264
vt 0.620713 0.624083
vt 0.666078 0.573175
vt 0.964343 0.670785
vt 0.246801 0.267924
vt 0.319775 0.250824
vt 0.306087 0.390536
vt 0.161828 0.338280
vt 0.294088 0.399003
vt 0.146169 0.412579
vt 0.851283 0.621516
vt 0.621678 0.574469
vt 0.847029 0.683964
vt 0.859983 0.634853
vt 0.973123 0.500303
vt 0.944356 0.492460
vt 0.974702 0.494894
vt 0.969740 0.536460
vt 0.969890 0.668200
vt 0.938574 0.465587
vt 0.952027 0.505834
vt 0.949260 0.498621
vt 0.985741 0.566339
vt 0.986321 0.571426
vt 0.921104 0.494858
vt 0.987847 0.631030
vt 0.990047 0.625606
vt 0.922214 0.431387
vt 0.914746 0.669664
vt 0.908099 0.643445
vt 0.870964 0.675467
vt 0.297258 0.411066
vt 0.413214 0.462970
vt 0.348335 0.540222
vt 0.313053 0.410369
vt 0.400362 0.310993
vt 0.273661 0.550751
vt 0.315346 0.395262
vt 0.167406 0.493031
vn -0.0532 -0.7931 -0.6067
vn -0.2127 -0.3343 -0.9181
vn -0.0359 -0.9427 -0.3318
vn 0.1352 -0.8685 -0.4768
vn 0.0865 -0.5495 -0.8310
vn 0.0505 -0.9981 0.0367
vn 0.5463 -0.5988 0.5857
vn 0.2548 -0.8910 0.3759
vn 0.3464 -0.2497 0.9042
vn 0.0324 -0.1248 -0.9916
vn -0.0893 0.4514 -0.8878
vn -0.2440 0.6314 0.7360
vn -0.1866 0.8835 0.4297
vn -0.3135 0.9404 0.1319
vn -0.6414 -0.0574 0.7650
vn 0.2207 0.3585 0.9071
vn 0.0035 -0.9650 0.2623
vn -0.4848 -0.8431 0.2328
vn -0.5814 0.2793 0.7642
vn -0.1704 -0.0958 -0.9807
vn -0.0997 -0.9627 -0.2515
vn -0.2379 -0.9278 0.2876
vn -0.0504 -0.9446 -0.3242
vn 0.0513 -0.9337 0.3544
vn -0.1086 -0.6163 0.7800
vn -0.0677 -0.9754 0.2098
vn -0.1104 0.8230 -0.5571
vn -0.0147 0.0041 -0.9999
vn -0.0312 0.1974 -0.9798
vn -0.0457 -0.9674 -0.2491
vn 0.0161 -0.6602 0.7509
vn -0.0361 -0.4529 -0.8908
vn -0.2974 0.8707 -0.3918
vn -0.0943 0.9808 -0.1704
vn -0.0534 0.7328 -0.6784
vn -0.2363 0.9168 -0.3219
vn -0.3484 0.7417 -0.5731
vn -0.0287 -0.5401 -0.8411
vn -0.2811 0.8137 -0.5088
vn -0.5060 0.8537 -0.1232
vn -0.2141 -0.9751 -0.0572
vn -0.4314 -0.1035 -0.8962
vn -0.1488 -0.8908 0.4294
vn -0.2423 0.3466 0.9062
vn 0.0944 -0.8147 0.5722
vn -0.8802 0.1908 0.4347
vn 0.0321 -0.8266 0.5619
vn -0.2009 0.5464 0.8131
vn -0.8381 -0.0209 0.5451
vn -0.6870 0.2415 -0.6854
vn -0.5237 -0.8505 -0.0498
vn -0.7950 -0.3708 -0.4800
vn -0.4388 0.8360 -0.3294
vn -0.1541 0.4915 0.8571
vn -0.1574 -0.9859 0.0570
vn -0.2785 0.8152 -0.5078
vn -0.0210 -0.5737 -0.8188
vn -0.2910 0.8177 -0.4966
vn -0.1126 0.9626 0.2463
vn -0.7230 0.6883 -0.0590
vn -0.6431 -0.4045 -0.6502
vn -0.8692 -0.3968 -0.2952
vn -0.5971 0.5264 0.6053
vn -0.2054 0.7350 0.6461
vn -0.2297 0.9646 -0.1292
vn -0.1571 0.1744 0.9721
vn -0.3777 0.6057 0.7004
vn -0.3300 -0.1803 0.9266
vn -0.1145 0.8676 0.4840
vn 0.0762 0.5501 0.8316
vn 0.0252 -0.0119 0.9996
vn -0.1675 0.2878 0.9429
vn 0.0154 -0.4771 0.8787
vn 0.7048 -0.7012 -0.1073
vn 0.4662 -0.8415 -0.2729
vn 0.3670 0.9299 0.0256
vn 0.4742 0.7751 -0.4177
vn -0.2454 -0.9691 -0.0247
vn 0.2071 -0.9776 -0.0378
vn 0.7201 -0.4751 0.5058
vn 0.5240 0.4632 0.7147
vn -0.1166 -0.2234 0.9677
vn 0.5419 -0.2257 -0.8096
vn -0.2001 -0.4530 -0.8688
vn -0.1487 0.6488 -0.7463
vn 0.4721 0.7897 0.3918
vn -0.1551 0.3708 -0.9157
vn 0.9642 0.2625 0.0366
vn 0.9233 0.3827 -0.0328
vn -0.1725 0.8722 0.4577
vn 0.4852 0.5411 -0.6869
vn 0.0981 0.4825 0.8704
vn -0.6143 -0.7702 -0.1713
vn -0.9713 0.2081 0.1150
vn -0.3699 -0.9274 0.0555
vn 0.0450 -0.7929 0.6077
vn 0.9727 0.2320 -0.0106
vn 0.9217 0.1645 0.3513
vn 0.9943 0.0922 0.0528
usemtl M
s 1
f 32/1/1 2/2/2 29/3/3
f 4/4/4 43/5/5 44/6/6
f 16/7/7 5/8/8 6/9/9
f 43/5/5 4/4/4 9/10/10
f 10/11/11 43/5/5 9/10/10
f 18/12/12 11/13/13 13/14/14
f 70/15/15 16/7/7 17/16/16
f 63/17/17 62/18/18 25/19/19
f 20/20/20 85/21/21 63/17/17
f 68/22/22 14/23/23 16/7/7
f 28/24/24 27/25/25 3/26/26
f 1/27/27 30/28/28 39/29/29
f 38/30/30 3/26/26 33/31/31
f 27/25/25 33/31/31 3/26/26
f 34/32/32 39/29/29 30/28/28
f 29/3/3 28/33/24 3/34/26
f 32/1/1 3/34/26 38/35/30
f 42/36/33 36/37/34 35/38/35
f 10/11/11 42/36/33 39/29/29
f 42/36/33 10/11/11 8/39/36
f 59/40/37 58/41/38 60/42/39
f 62/43/18 12/44/40 25/45/19
f 13/14/14 49/46/41 19/47/42
f 74/48/43 50/49/44 51/50/45
f 51/50/45 18/51/12 52/52/46
f 56/53/47 45/54/48 57/55/49
f 49/56/41 51/50/45 19/57/42
f 12/44/40 20/20/20 24/58/50
f 12/44/40 24/58/50 25/45/19
f 24/58/50 63/17/17 23/59/51
f 63/17/17 25/19/19 23/59/51
f 64/60/52 56/53/47 57/55/49
f 59/40/37 62/43/18 58/41/38
f 66/61/53 59/40/37 46/62/54
f 13/14/14 45/63/48 49/46/41
f 49/56/41 45/54/48 56/53/47
f 55/64/55 49/56/41 56/53/47
f 53/65/56 66/61/53 54/66/57
f 13/14/14 48/67/58 18/12/12
f 31/68/59 35/38/35 36/37/34
f 69/69/60 67/70/61 70/71/15
f 15/72/62 69/69/60 71/73/63
f 73/74/64 70/15/15 17/16/16
f 71/75/63 73/74/64 17/16/16
f 68/76/22 67/70/61 14/77/23
f 15/72/62 71/73/63 50/49/44
f 11/13/13 91/78/65 13/14/14
f 12/44/40 62/43/18 59/40/37
f 91/78/65 59/40/37 66/61/53
f 76/79/66 75/80/67 31/68/59
f 27/25/25 79/81/68 76/79/66
f 37/82/69 40/83/70 31/68/59
f 77/84/71 5/85/8 33/31/31
f 75/80/67 76/79/66 79/81/68
f 79/81/68 78/86/72 75/80/67
f 79/81/68 27/25/25 26/87/73
f 81/88/74 29/3/3 93/89/75
f 83/90/76 84/91/77 1/27/27
f 9/10/10 4/4/4 85/21/21
f 74/48/43 90/92/78 15/72/62
f 90/92/78 72/93/79 14/77/23
f 72/93/79 4/4/4 5/94/8
f 92/95/80 94/96/81 80/97/82
f 89/98/83 93/89/75 88/99/84
f 85/21/21 62/18/18 63/17/17
f 72/93/79 90/92/78 4/4/4
f 8/39/36 12/44/40 59/40/37
f 8/39/36 61/100/85 12/44/40
f 80/97/82 26/87/73 81/101/74
f 1/27/27 31/68/59 83/90/76
f 86/102/86 75/80/67 78/86/72
f 82/103/87 88/99/84 2/2/2
f 28/24/24 81/101/74 26/87/73
f 19/47/42 52/104/46 48/67/58
f 86/105/86 94/106/81 96/107/88
f 83/108/76 97/109/89 84/110/77
f 5/94/8 4/4/4 44/6/6
f 8/39/36 11/13/13 41/111/90
f 61/100/85 8/39/36 10/11/11
f 70/15/15 68/22/22 16/7/7
f 16/7/7 6/9/9 17/16/16
f 28/24/24 26/87/73 27/25/25
f 29/3/3 2/2/2 88/99/84
f 84/91/77 87/112/91 82/103/87
f 29/3/3 81/88/74 28/33/24
f 32/1/1 30/28/28 2/2/2
f 39/29/29 35/38/35 1/27/27
f 32/1/1 34/32/32 30/28/28
f 37/82/69 42/36/33 41/111/90
f 3/34/26 32/1/1 29/3/3
f 36/37/34 37/82/69 31/68/59
f 33/31/31 5/85/8 44/113/6
f 33/31/31 44/113/6 38/30/30
f 39/29/29 42/36/33 35/38/35
f 37/82/69 7/114/92 40/83/70
f 39/29/29 43/5/5 10/11/11
f 38/35/30 44/6/6 43/5/5
f 38/35/30 43/5/5 34/32/32
f 22/115/93 46/116/54 65/117/94
f 42/36/33 8/39/36 41/111/90
f 25/45/19 24/58/50 23/118/51
f 18/12/12 48/67/58 52/104/46
f 46/62/54 59/40/37 60/42/39
f 20/20/20 61/100/85 9/10/10
f 20/20/20 9/10/10 85/21/21
f 24/58/50 20/20/20 63/17/17
f 19/47/42 21/119/95 52/104/46
f 54/120/57 55/64/55 56/53/47
f 58/121/38 47/122/96 22/115/93
f 61/100/85 20/20/20 12/44/40
f 22/123/93 60/42/39 58/41/38
f 46/62/54 60/42/39 65/124/94
f 66/125/53 47/122/96 55/64/55
f 45/63/48 53/65/56 57/126/49
f 53/65/56 64/127/52 57/126/49
f 53/65/56 54/66/57 64/127/52
f 54/120/57 56/53/47 64/60/52
f 21/128/95 51/50/45 52/52/46
f 19/57/42 51/50/45 21/128/95
f 47/122/96 62/18/18 55/64/55
f 53/65/56 13/14/14 91/78/65
f 66/125/53 55/64/55 54/120/57
f 91/78/65 66/61/53 53/65/56
f 11/13/13 7/114/92 41/111/90
f 49/56/41 74/48/43 51/50/45
f 51/50/45 50/49/44 18/51/12
f 48/67/58 13/14/14 19/47/42
f 6/9/9 7/114/92 17/16/16
f 73/74/64 69/129/60 70/15/15
f 14/77/23 67/70/61 15/72/62
f 71/75/63 69/129/60 73/74/64
f 68/76/22 70/71/15 67/70/61
f 71/75/63 11/13/13 50/130/44
f 16/7/7 14/23/23 72/131/79
f 6/9/9 40/83/70 7/114/92
f 18/12/12 50/130/44 11/13/13
f 74/48/43 15/72/62 50/49/44
f 49/56/41 55/64/55 74/48/43
f 55/64/55 62/18/18 85/21/21
f 61/100/85 10/11/11 9/10/10
f 33/31/31 27/25/25 76/79/66
f 31/68/59 40/83/70 76/79/66
f 76/79/66 77/84/71 33/31/31
f 75/80/67 83/90/76 31/68/59
f 77/84/71 6/9/9 5/85/8
f 76/79/66 40/83/70 77/84/71
f 26/87/73 80/97/82 78/86/72
f 29/3/3 88/99/84 93/89/75
f 1/27/27 84/91/77 82/103/87
f 90/92/78 55/64/55 85/21/21
f 74/48/43 55/64/55 90/92/78
f 16/7/7 72/131/79 5/8/8
f 15/72/62 90/92/78 14/77/23
f 4/4/4 90/92/78 85/21/21
f 91/78/65 11/13/13 8/39/36
f 91/78/65 8/39/36 59/40/37
f 94/96/81 86/102/86 78/86/72
f 80/97/82 94/96/81 78/86/72
f 80/97/82 81/101/74 92/95/80
f 82/103/87 2/2/2 30/28/28
f 82/103/87 30/28/28 1/27/27
f 89/98/83 82/103/87 87/112/91
f 79/81/68 26/87/73 78/86/72
f 98/132/97 84/110/77 97/109/89
f 69/69/60 15/72/62 67/70/61
f 97/109/89 86/105/86 96/107/88
f 81/133/74 93/134/75 99/135/98
f 92/136/80 96/107/88 94/106/81
f 92/136/80 81/133/74 99/135/98
f 99/135/98 89/137/83 98/132/97
f 92/136/80 95/138/99 96/107/88
f 89/137/83 87/139/91 98/132/97
f 92/136/80 99/135/98 95/138/99
f 31/68/59 1/27/27 35/38/35
f 32/1/1 38/35/30 34/32/32
f 37/82/69 36/37/34 42/36/33
f 37/82/69 41/111/90 7/114/92
f 39/29/29 34/32/32 43/5/5
f 22/115/93 47/122/96 46/116/54
f 22/123/93 65/124/94 60/42/39
f 66/125/53 46/116/54 47/122/96
f 47/122/96 58/121/38 62/18/18
f 53/65/56 45/63/48 13/14/14
f 11/13/13 17/16/16 7/114/92
f 71/75/63 17/16/16 11/13/13
f 6/9/9 77/84/71 40/83/70
f 75/80/67 86/102/86 83/90/76
f 89/98/83 88/99/84 82/103/87
f 98/132/97 87/139/91 84/110/77
f 97/109/89 83/108/76 86/105/86
f 99/135/98 93/134/75 89/137/83
