# Blender v2.83.0 OBJ File: ''
# www.blender.org
mtllib ground.mtl
o Cube.001
v -100.000000 0.000016 -100.000000
v 100.000000 -0.000016 100.000000
v 100.000000 0.000016 -100.000000
v -100.000000 -0.100016 100.000000
v 100.000000 -0.100016 100.000000
v -100.000000 -0.000016 100.000000
v -100.000000 -0.099984 -100.000000
v 100.000000 -0.099984 -100.000000
vt 0.760116 0.927734
vt 0.794503 0.910507
vt 0.794503 0.927734
vt 0.794554 0.910507
vt 0.794537 0.927734
vt 0.794537 0.910507
vt 0.794520 0.910507
vt 0.794503 0.927734
vt 0.794503 0.910507
vt 0.760116 0.944962
vt 0.794503 0.944962
vt 0.794571 0.910507
vt 0.794554 0.927734
vt 0.794554 0.910507
vt 0.794520 0.927734
vt 0.794537 0.910507
vt 0.760116 0.910507
vt 0.794554 0.927734
vt 0.760116 0.927734
vt 0.794571 0.927734
vt 0.794520 0.910507
vn 0.0000 1.0000 0.0000
vn 0.0000 0.0000 1.0000
vn -1.0000 0.0000 0.0000
vn 0.0000 -1.0000 -0.0000
vn 1.0000 0.0000 0.0000
vn 0.0000 0.0000 -1.0000
usemtl Material.001
s 1
f 1/1/1 2/2/1 3/3/1
f 2/4/2 4/5/2 5/6/2
f 6/7/3 7/8/3 4/9/3
f 8/10/4 4/5/4 7/11/4
f 3/12/5 5/13/5 8/14/5
f 1/15/6 8/16/6 7/8/6
f 1/1/1 6/17/1 2/2/1
f 2/4/2 6/18/2 4/5/2
f 6/7/3 1/15/3 7/8/3
f 8/10/4 5/19/4 4/5/4
f 3/12/5 2/20/5 5/13/5
f 1/15/6 3/21/6 8/16/6
